<svg width="1440" height="1322" viewBox="0 0 1440 1322" fill="none" xmlns="http://www.w3.org/2000/svg">
<path fill-rule="evenodd" clip-rule="evenodd" d="M0 170V136H82.5378V170H165.076V136H247.613V68H330.151V34H412.58V136H481V99.5106H628H648V136H660.193V68H742.731V136H825.269H907.807V158.787H962V223.978H990.344V170H1072.88V136H1129V61H1296V136H1320.39V191.382H1402.92V136H1485.46V0H1568V306H1485.46H1463V354.36H1440V885H1467V982.787H1440V985L1465.46 985H1467H1548V1134.78V1172.22H1467H1465.46V1134.78H1382.92V1172.22H1300.39V1247.11H1217.85V1284.56H1135.42V1172.22H1052.88V1022.44H970.344V1172.22H966V1178.36H887.807V1247.11H805.269V1178.36H799V1172.22H722.731H640.193V1050.57H557.656V1134.78H475.118V1172.22H392.58V1059.89H315V1148.36H310.151V1172.22H227.613V1148.36H148V1022.44H145.076V1172.22H62.5378V1322H-20V985H-19V855H0V399.304H-20V299.373H0V170Z" fill="url(#paint0_linear)"/>
<defs>
<linearGradient id="paint0_linear" x1="774" y1="0" x2="774" y2="1294.82" gradientUnits="userSpaceOnUse">
<stop stop-color="#252525"/>
<stop offset="1" stop-color="#252525"/>
</linearGradient>
</defs>
</svg>
